<?xml version="1.0" encoding="iso-8859-1"?>
<!-- Generator: Adobe Illustrator 19.0.0, SVG Export Plug-In . SVG Version: 6.00 Build 0)  -->
<svg version="1.1" id="Layer_1" xmlns="http://www.w3.org/2000/svg" xmlns:xlink="http://www.w3.org/1999/xlink" x="0px" y="0px"
	 viewBox="0 0 446 446" style="enable-background:new 0 0 446 446;" xml:space="preserve">
<g>
	<g id="XMLID_4_">
		<g>
			<polygon style="fill:#F4581B;" points="180.5,417.84 180.5,446 156.5,428 132.5,446 132.5,417.84 132.5,388.81 180.5,388.81 			
				"/>
			<path style="fill:#E6E6E6;" d="M132.5,388.81v29.03h-21.47c-8.02,0-15.27-3.25-20.53-8.5c-5.25-5.26-8.5-12.52-8.5-20.53H132.5z"
				/>
			<rect x="180.5" y="388.81" style="fill:#E6E6E6;" width="183.5" height="29.03"/>
			<path style="fill:#F2F2F2;" d="M364,363.46v25.35H180.5h-48H82c0-1.36,0.09-2.7,0.28-4.01c1.95-14.14,14.08-25.03,28.75-25.03
				h21.47h48H364V363.46z"/>
			<path style="fill:#DDB74B;" d="M111.03,0v359.77c-14.67,0-26.8,10.89-28.75,25.03L82,384.77V29.03C82,13,95,0,111.03,0z"/>
			<rect x="323.06" y="73.2" style="fill:#008DB3;" width="40.94" height="73.2"/>
			<rect x="323.06" y="219.6" style="fill:#F4581B;" width="40.94" height="73.2"/>
			<polygon style="fill:#F7CF52;" points="364,292.8 364,359.77 180.5,359.77 132.5,359.77 111.03,359.77 111.03,0 323.06,0 
				323.06,73.2 323.06,146.4 323.06,219.6 323.06,292.8 			"/>
			<rect x="323.06" y="146.4" style="fill:#E6E6E6;" width="40.94" height="73.2"/>
			<rect x="323.06" style="fill:#E6E6E6;" width="40.94" height="73.2"/>
		</g>
	</g>
</g>
<g>
</g>
<g>
</g>
<g>
</g>
<g>
</g>
<g>
</g>
<g>
</g>
<g>
</g>
<g>
</g>
<g>
</g>
<g>
</g>
<g>
</g>
<g>
</g>
<g>
</g>
<g>
</g>
<g>
</g>
</svg>
